<mxfile host="app.diagrams.net" agent="Mozilla/5.0 (Windows NT 10.0; Win64; x64) AppleWebKit/537.36 (KHTML, like Gecko) Chrome/140.0.0.0 Safari/537.36" version="28.2.3">
  <diagram id="-rZ_tPmYqrcCjNM2Y_lt" name="BTMH-bÃ i 7">
    <mxGraphModel dx="902" dy="464" grid="1" gridSize="10" guides="1" tooltips="1" connect="1" arrows="1" fold="1" page="1" pageScale="1" pageWidth="827" pageHeight="1169" math="0" shadow="0">
      <root>
        <mxCell id="0" />
        <mxCell id="1" parent="0" />
        <mxCell id="Xp-bYGUBTnB8BTRdH-gd-1" value="Branch" style="rounded=0;whiteSpace=wrap;html=1;" parent="1" vertex="1">
          <mxGeometry x="605.5" y="369" width="106" height="40" as="geometry" />
        </mxCell>
        <mxCell id="Xp-bYGUBTnB8BTRdH-gd-2" style="edgeStyle=orthogonalEdgeStyle;rounded=0;orthogonalLoop=1;jettySize=auto;html=1;entryX=0.5;entryY=0;entryDx=0;entryDy=0;shape=link;" parent="1" source="Xp-bYGUBTnB8BTRdH-gd-4" target="Xp-bYGUBTnB8BTRdH-gd-71" edge="1">
          <mxGeometry relative="1" as="geometry" />
        </mxCell>
        <mxCell id="Xp-bYGUBTnB8BTRdH-gd-3" style="edgeStyle=orthogonalEdgeStyle;rounded=0;orthogonalLoop=1;jettySize=auto;html=1;exitX=1;exitY=0.5;exitDx=0;exitDy=0;entryX=0;entryY=0.5;entryDx=0;entryDy=0;endArrow=none;endFill=0;shape=link;" parent="1" source="Xp-bYGUBTnB8BTRdH-gd-4" target="Xp-bYGUBTnB8BTRdH-gd-61" edge="1">
          <mxGeometry relative="1" as="geometry" />
        </mxCell>
        <mxCell id="Xp-bYGUBTnB8BTRdH-gd-4" value="Account" style="rounded=0;whiteSpace=wrap;html=1;" parent="1" vertex="1">
          <mxGeometry x="599" y="629" width="106" height="40" as="geometry" />
        </mxCell>
        <mxCell id="Xp-bYGUBTnB8BTRdH-gd-5" style="rounded=0;orthogonalLoop=1;jettySize=auto;html=1;exitX=1;exitY=0;exitDx=0;exitDy=0;entryX=0;entryY=0.5;entryDx=0;entryDy=0;endArrow=none;endFill=0;" parent="1" source="Xp-bYGUBTnB8BTRdH-gd-11" target="Xp-bYGUBTnB8BTRdH-gd-67" edge="1">
          <mxGeometry relative="1" as="geometry" />
        </mxCell>
        <mxCell id="Xp-bYGUBTnB8BTRdH-gd-6" style="rounded=0;orthogonalLoop=1;jettySize=auto;html=1;exitX=1;exitY=0.5;exitDx=0;exitDy=0;entryX=0;entryY=0.5;entryDx=0;entryDy=0;endArrow=none;endFill=0;" parent="1" source="Xp-bYGUBTnB8BTRdH-gd-11" target="Xp-bYGUBTnB8BTRdH-gd-65" edge="1">
          <mxGeometry relative="1" as="geometry" />
        </mxCell>
        <mxCell id="Xp-bYGUBTnB8BTRdH-gd-7" style="rounded=0;orthogonalLoop=1;jettySize=auto;html=1;exitX=1;exitY=1;exitDx=0;exitDy=0;entryX=0;entryY=0.5;entryDx=0;entryDy=0;endArrow=none;endFill=0;" parent="1" source="Xp-bYGUBTnB8BTRdH-gd-11" target="Xp-bYGUBTnB8BTRdH-gd-68" edge="1">
          <mxGeometry relative="1" as="geometry" />
        </mxCell>
        <mxCell id="Xp-bYGUBTnB8BTRdH-gd-8" style="rounded=0;orthogonalLoop=1;jettySize=auto;html=1;entryX=0.5;entryY=0;entryDx=0;entryDy=0;endArrow=none;endFill=0;" parent="1" source="Xp-bYGUBTnB8BTRdH-gd-11" target="Xp-bYGUBTnB8BTRdH-gd-66" edge="1">
          <mxGeometry relative="1" as="geometry" />
        </mxCell>
        <mxCell id="Xp-bYGUBTnB8BTRdH-gd-9" style="rounded=0;orthogonalLoop=1;jettySize=auto;html=1;endArrow=none;endFill=0;" parent="1" source="Xp-bYGUBTnB8BTRdH-gd-11" target="Xp-bYGUBTnB8BTRdH-gd-64" edge="1">
          <mxGeometry relative="1" as="geometry" />
        </mxCell>
        <mxCell id="Xp-bYGUBTnB8BTRdH-gd-10" style="rounded=0;orthogonalLoop=1;jettySize=auto;html=1;exitX=0.75;exitY=1;exitDx=0;exitDy=0;entryX=0;entryY=0.5;entryDx=0;entryDy=0;endArrow=none;endFill=0;" parent="1" source="Xp-bYGUBTnB8BTRdH-gd-11" target="Xp-bYGUBTnB8BTRdH-gd-69" edge="1">
          <mxGeometry relative="1" as="geometry" />
        </mxCell>
        <mxCell id="Xp-bYGUBTnB8BTRdH-gd-11" value="Customer" style="rounded=0;whiteSpace=wrap;html=1;" parent="1" vertex="1">
          <mxGeometry x="1067" y="629" width="106" height="40" as="geometry" />
        </mxCell>
        <mxCell id="Xp-bYGUBTnB8BTRdH-gd-12" style="edgeStyle=orthogonalEdgeStyle;rounded=0;orthogonalLoop=1;jettySize=auto;html=1;entryX=0.5;entryY=0;entryDx=0;entryDy=0;endArrow=none;endFill=0;" parent="1" source="Xp-bYGUBTnB8BTRdH-gd-13" target="Xp-bYGUBTnB8BTRdH-gd-59" edge="1">
          <mxGeometry relative="1" as="geometry" />
        </mxCell>
        <mxCell id="Xp-bYGUBTnB8BTRdH-gd-13" value="Employee" style="rounded=0;whiteSpace=wrap;html=1;" parent="1" vertex="1">
          <mxGeometry x="1067" y="359" width="106" height="40" as="geometry" />
        </mxCell>
        <mxCell id="Xp-bYGUBTnB8BTRdH-gd-14" value="Address" style="ellipse;whiteSpace=wrap;html=1;" parent="1" vertex="1">
          <mxGeometry x="583.5" y="269" width="109" height="40" as="geometry" />
        </mxCell>
        <mxCell id="Xp-bYGUBTnB8BTRdH-gd-15" value="" style="endArrow=none;html=1;rounded=0;exitX=0.5;exitY=1;exitDx=0;exitDy=0;entryX=0.5;entryY=0;entryDx=0;entryDy=0;" parent="1" source="Xp-bYGUBTnB8BTRdH-gd-14" target="Xp-bYGUBTnB8BTRdH-gd-1" edge="1">
          <mxGeometry width="50" height="50" relative="1" as="geometry">
            <mxPoint x="793" y="239" as="sourcePoint" />
            <mxPoint x="843" y="189" as="targetPoint" />
          </mxGeometry>
        </mxCell>
        <mxCell id="Xp-bYGUBTnB8BTRdH-gd-16" value="Email" style="ellipse;whiteSpace=wrap;html=1;" parent="1" vertex="1">
          <mxGeometry x="674" y="309" width="109" height="40" as="geometry" />
        </mxCell>
        <mxCell id="Xp-bYGUBTnB8BTRdH-gd-17" value="" style="endArrow=none;html=1;rounded=0;entryX=0.5;entryY=1;entryDx=0;entryDy=0;exitX=0.75;exitY=0;exitDx=0;exitDy=0;" parent="1" source="Xp-bYGUBTnB8BTRdH-gd-1" target="Xp-bYGUBTnB8BTRdH-gd-16" edge="1">
          <mxGeometry width="50" height="50" relative="1" as="geometry">
            <mxPoint x="743" y="419" as="sourcePoint" />
            <mxPoint x="793" y="369" as="targetPoint" />
          </mxGeometry>
        </mxCell>
        <mxCell id="Xp-bYGUBTnB8BTRdH-gd-18" value="&lt;u&gt;Name&lt;/u&gt;" style="ellipse;whiteSpace=wrap;html=1;" parent="1" vertex="1">
          <mxGeometry x="496.5" y="319" width="109" height="40" as="geometry" />
        </mxCell>
        <mxCell id="Xp-bYGUBTnB8BTRdH-gd-19" value="" style="endArrow=none;html=1;rounded=0;entryX=1;entryY=1;entryDx=0;entryDy=0;exitX=0.25;exitY=0;exitDx=0;exitDy=0;" parent="1" source="Xp-bYGUBTnB8BTRdH-gd-1" target="Xp-bYGUBTnB8BTRdH-gd-18" edge="1">
          <mxGeometry width="50" height="50" relative="1" as="geometry">
            <mxPoint x="423" y="559" as="sourcePoint" />
            <mxPoint x="473" y="509" as="targetPoint" />
          </mxGeometry>
        </mxCell>
        <mxCell id="Xp-bYGUBTnB8BTRdH-gd-20" value="Fax" style="ellipse;shape=doubleEllipse;whiteSpace=wrap;html=1;" parent="1" vertex="1">
          <mxGeometry x="463" y="369" width="100" height="50" as="geometry" />
        </mxCell>
        <mxCell id="Xp-bYGUBTnB8BTRdH-gd-21" value="Phone" style="ellipse;shape=doubleEllipse;whiteSpace=wrap;html=1;" parent="1" vertex="1">
          <mxGeometry x="463" y="429" width="100" height="50" as="geometry" />
        </mxCell>
        <mxCell id="Xp-bYGUBTnB8BTRdH-gd-22" value="" style="endArrow=none;html=1;rounded=0;entryX=0;entryY=0.75;entryDx=0;entryDy=0;exitX=1;exitY=0.5;exitDx=0;exitDy=0;" parent="1" source="Xp-bYGUBTnB8BTRdH-gd-21" target="Xp-bYGUBTnB8BTRdH-gd-1" edge="1">
          <mxGeometry width="50" height="50" relative="1" as="geometry">
            <mxPoint x="613" y="619" as="sourcePoint" />
            <mxPoint x="663" y="569" as="targetPoint" />
          </mxGeometry>
        </mxCell>
        <mxCell id="Xp-bYGUBTnB8BTRdH-gd-23" value="" style="endArrow=none;html=1;rounded=0;entryX=0;entryY=0.25;entryDx=0;entryDy=0;exitX=1;exitY=0.5;exitDx=0;exitDy=0;" parent="1" source="Xp-bYGUBTnB8BTRdH-gd-20" target="Xp-bYGUBTnB8BTRdH-gd-1" edge="1">
          <mxGeometry width="50" height="50" relative="1" as="geometry">
            <mxPoint x="593" y="499" as="sourcePoint" />
            <mxPoint x="643" y="449" as="targetPoint" />
          </mxGeometry>
        </mxCell>
        <mxCell id="Xp-bYGUBTnB8BTRdH-gd-24" value="Nump. of Emp" style="ellipse;whiteSpace=wrap;html=1;dashed=1;" parent="1" vertex="1">
          <mxGeometry x="540.5" y="479" width="95" height="50" as="geometry" />
        </mxCell>
        <mxCell id="Xp-bYGUBTnB8BTRdH-gd-25" value="" style="endArrow=none;html=1;rounded=0;exitX=0.5;exitY=0;exitDx=0;exitDy=0;entryX=0.25;entryY=1;entryDx=0;entryDy=0;" parent="1" source="Xp-bYGUBTnB8BTRdH-gd-24" target="Xp-bYGUBTnB8BTRdH-gd-1" edge="1">
          <mxGeometry width="50" height="50" relative="1" as="geometry">
            <mxPoint x="923" y="519" as="sourcePoint" />
            <mxPoint x="973" y="469" as="targetPoint" />
          </mxGeometry>
        </mxCell>
        <mxCell id="Xp-bYGUBTnB8BTRdH-gd-26" value="Street" style="ellipse;whiteSpace=wrap;html=1;" parent="1" vertex="1">
          <mxGeometry x="483" y="217" width="90" height="38" as="geometry" />
        </mxCell>
        <mxCell id="Xp-bYGUBTnB8BTRdH-gd-27" value="District" style="ellipse;whiteSpace=wrap;html=1;" parent="1" vertex="1">
          <mxGeometry x="533" y="171" width="90" height="38" as="geometry" />
        </mxCell>
        <mxCell id="Xp-bYGUBTnB8BTRdH-gd-28" value="No." style="ellipse;whiteSpace=wrap;html=1;" parent="1" vertex="1">
          <mxGeometry x="473" y="269" width="90" height="38" as="geometry" />
        </mxCell>
        <mxCell id="Xp-bYGUBTnB8BTRdH-gd-29" value="City" style="ellipse;whiteSpace=wrap;html=1;" parent="1" vertex="1">
          <mxGeometry x="638" y="179" width="90" height="38" as="geometry" />
        </mxCell>
        <mxCell id="Xp-bYGUBTnB8BTRdH-gd-30" value="Region" style="ellipse;whiteSpace=wrap;html=1;" parent="1" vertex="1">
          <mxGeometry x="703" y="219" width="90" height="38" as="geometry" />
        </mxCell>
        <mxCell id="Xp-bYGUBTnB8BTRdH-gd-31" value="" style="endArrow=none;html=1;rounded=0;exitX=1;exitY=0.5;exitDx=0;exitDy=0;entryX=0;entryY=0.5;entryDx=0;entryDy=0;" parent="1" source="Xp-bYGUBTnB8BTRdH-gd-28" target="Xp-bYGUBTnB8BTRdH-gd-14" edge="1">
          <mxGeometry width="50" height="50" relative="1" as="geometry">
            <mxPoint x="593" y="279" as="sourcePoint" />
            <mxPoint x="643" y="229" as="targetPoint" />
          </mxGeometry>
        </mxCell>
        <mxCell id="Xp-bYGUBTnB8BTRdH-gd-32" value="" style="endArrow=none;html=1;rounded=0;entryX=0;entryY=1;entryDx=0;entryDy=0;exitX=1;exitY=0;exitDx=0;exitDy=0;" parent="1" source="Xp-bYGUBTnB8BTRdH-gd-14" target="Xp-bYGUBTnB8BTRdH-gd-30" edge="1">
          <mxGeometry width="50" height="50" relative="1" as="geometry">
            <mxPoint x="903" y="419" as="sourcePoint" />
            <mxPoint x="953" y="369" as="targetPoint" />
          </mxGeometry>
        </mxCell>
        <mxCell id="Xp-bYGUBTnB8BTRdH-gd-33" value="" style="endArrow=none;html=1;rounded=0;entryX=0.5;entryY=1;entryDx=0;entryDy=0;exitX=0.678;exitY=0.059;exitDx=0;exitDy=0;exitPerimeter=0;" parent="1" source="Xp-bYGUBTnB8BTRdH-gd-14" target="Xp-bYGUBTnB8BTRdH-gd-29" edge="1">
          <mxGeometry width="50" height="50" relative="1" as="geometry">
            <mxPoint x="903" y="419" as="sourcePoint" />
            <mxPoint x="953" y="369" as="targetPoint" />
          </mxGeometry>
        </mxCell>
        <mxCell id="Xp-bYGUBTnB8BTRdH-gd-34" value="" style="endArrow=none;html=1;rounded=0;exitX=0.5;exitY=1;exitDx=0;exitDy=0;entryX=0.5;entryY=0;entryDx=0;entryDy=0;" parent="1" source="Xp-bYGUBTnB8BTRdH-gd-27" target="Xp-bYGUBTnB8BTRdH-gd-14" edge="1">
          <mxGeometry width="50" height="50" relative="1" as="geometry">
            <mxPoint x="903" y="419" as="sourcePoint" />
            <mxPoint x="953" y="369" as="targetPoint" />
          </mxGeometry>
        </mxCell>
        <mxCell id="Xp-bYGUBTnB8BTRdH-gd-35" value="" style="endArrow=none;html=1;rounded=0;exitX=0.946;exitY=0.743;exitDx=0;exitDy=0;exitPerimeter=0;entryX=0;entryY=0;entryDx=0;entryDy=0;" parent="1" source="Xp-bYGUBTnB8BTRdH-gd-26" target="Xp-bYGUBTnB8BTRdH-gd-14" edge="1">
          <mxGeometry width="50" height="50" relative="1" as="geometry">
            <mxPoint x="903" y="419" as="sourcePoint" />
            <mxPoint x="953" y="369" as="targetPoint" />
          </mxGeometry>
        </mxCell>
        <mxCell id="Xp-bYGUBTnB8BTRdH-gd-36" value="work for" style="rhombus;whiteSpace=wrap;html=1;" parent="1" vertex="1">
          <mxGeometry x="827" y="339" width="110" height="40" as="geometry" />
        </mxCell>
        <mxCell id="Xp-bYGUBTnB8BTRdH-gd-37" value="manage" style="rhombus;whiteSpace=wrap;html=1;" parent="1" vertex="1">
          <mxGeometry x="827" y="399" width="110" height="40" as="geometry" />
        </mxCell>
        <mxCell id="Xp-bYGUBTnB8BTRdH-gd-38" value="" style="shape=link;html=1;rounded=0;exitX=1;exitY=0.75;exitDx=0;exitDy=0;entryX=0;entryY=0.5;entryDx=0;entryDy=0;" parent="1" source="Xp-bYGUBTnB8BTRdH-gd-1" target="Xp-bYGUBTnB8BTRdH-gd-37" edge="1">
          <mxGeometry relative="1" as="geometry">
            <mxPoint x="823" y="429" as="sourcePoint" />
            <mxPoint x="983" y="429" as="targetPoint" />
          </mxGeometry>
        </mxCell>
        <mxCell id="Xp-bYGUBTnB8BTRdH-gd-39" value="1" style="resizable=0;html=1;whiteSpace=wrap;align=right;verticalAlign=bottom;" parent="Xp-bYGUBTnB8BTRdH-gd-38" connectable="0" vertex="1">
          <mxGeometry x="1" relative="1" as="geometry" />
        </mxCell>
        <mxCell id="Xp-bYGUBTnB8BTRdH-gd-40" value="" style="shape=link;html=1;rounded=0;entryX=1;entryY=0.5;entryDx=0;entryDy=0;exitX=0;exitY=0.25;exitDx=0;exitDy=0;" parent="1" source="Xp-bYGUBTnB8BTRdH-gd-13" target="Xp-bYGUBTnB8BTRdH-gd-36" edge="1">
          <mxGeometry relative="1" as="geometry">
            <mxPoint x="797" y="299" as="sourcePoint" />
            <mxPoint x="957" y="299" as="targetPoint" />
          </mxGeometry>
        </mxCell>
        <mxCell id="Xp-bYGUBTnB8BTRdH-gd-41" value="N" style="resizable=0;html=1;whiteSpace=wrap;align=right;verticalAlign=bottom;" parent="Xp-bYGUBTnB8BTRdH-gd-40" connectable="0" vertex="1">
          <mxGeometry x="1" relative="1" as="geometry" />
        </mxCell>
        <mxCell id="Xp-bYGUBTnB8BTRdH-gd-42" value="" style="endArrow=none;html=1;rounded=0;exitX=0;exitY=0.5;exitDx=0;exitDy=0;entryX=1;entryY=0.5;entryDx=0;entryDy=0;" parent="1" source="Xp-bYGUBTnB8BTRdH-gd-13" target="Xp-bYGUBTnB8BTRdH-gd-37" edge="1">
          <mxGeometry relative="1" as="geometry">
            <mxPoint x="1057" y="-121" as="sourcePoint" />
            <mxPoint x="1217" y="-121" as="targetPoint" />
          </mxGeometry>
        </mxCell>
        <mxCell id="Xp-bYGUBTnB8BTRdH-gd-43" value="1" style="resizable=0;html=1;whiteSpace=wrap;align=right;verticalAlign=bottom;" parent="Xp-bYGUBTnB8BTRdH-gd-42" connectable="0" vertex="1">
          <mxGeometry x="1" relative="1" as="geometry" />
        </mxCell>
        <mxCell id="Xp-bYGUBTnB8BTRdH-gd-44" value="" style="endArrow=none;html=1;rounded=0;exitX=1;exitY=0.25;exitDx=0;exitDy=0;entryX=0;entryY=0.5;entryDx=0;entryDy=0;" parent="1" source="Xp-bYGUBTnB8BTRdH-gd-1" target="Xp-bYGUBTnB8BTRdH-gd-36" edge="1">
          <mxGeometry relative="1" as="geometry">
            <mxPoint x="803" y="359" as="sourcePoint" />
            <mxPoint x="963" y="359" as="targetPoint" />
          </mxGeometry>
        </mxCell>
        <mxCell id="Xp-bYGUBTnB8BTRdH-gd-45" value="1" style="resizable=0;html=1;whiteSpace=wrap;align=right;verticalAlign=bottom;" parent="Xp-bYGUBTnB8BTRdH-gd-44" connectable="0" vertex="1">
          <mxGeometry x="1" relative="1" as="geometry" />
        </mxCell>
        <mxCell id="Xp-bYGUBTnB8BTRdH-gd-46" value="FName" style="ellipse;whiteSpace=wrap;html=1;" parent="1" vertex="1">
          <mxGeometry x="930" y="299" width="109" height="40" as="geometry" />
        </mxCell>
        <mxCell id="Xp-bYGUBTnB8BTRdH-gd-47" value="LName" style="ellipse;whiteSpace=wrap;html=1;" parent="1" vertex="1">
          <mxGeometry x="969" y="245" width="109" height="40" as="geometry" />
        </mxCell>
        <mxCell id="Xp-bYGUBTnB8BTRdH-gd-48" value="Email" style="ellipse;whiteSpace=wrap;html=1;" parent="1" vertex="1">
          <mxGeometry x="1250" y="285" width="109" height="40" as="geometry" />
        </mxCell>
        <mxCell id="Xp-bYGUBTnB8BTRdH-gd-49" value="DOB" style="ellipse;whiteSpace=wrap;html=1;" parent="1" vertex="1">
          <mxGeometry x="1242.5" y="374" width="109" height="40" as="geometry" />
        </mxCell>
        <mxCell id="Xp-bYGUBTnB8BTRdH-gd-50" value="Phones" style="ellipse;shape=doubleEllipse;whiteSpace=wrap;html=1;" parent="1" vertex="1">
          <mxGeometry x="1216.5" y="429" width="100" height="50" as="geometry" />
        </mxCell>
        <mxCell id="Xp-bYGUBTnB8BTRdH-gd-51" value="Code" style="ellipse;whiteSpace=wrap;html=1;fontStyle=4" parent="1" vertex="1">
          <mxGeometry x="973" y="429" width="109" height="40" as="geometry" />
        </mxCell>
        <mxCell id="Xp-bYGUBTnB8BTRdH-gd-52" value="" style="endArrow=none;html=1;rounded=0;entryX=1;entryY=1;entryDx=0;entryDy=0;exitX=0.25;exitY=0;exitDx=0;exitDy=0;" parent="1" source="Xp-bYGUBTnB8BTRdH-gd-13" target="Xp-bYGUBTnB8BTRdH-gd-46" edge="1">
          <mxGeometry width="50" height="50" relative="1" as="geometry">
            <mxPoint x="990" y="559" as="sourcePoint" />
            <mxPoint x="1040" y="509" as="targetPoint" />
          </mxGeometry>
        </mxCell>
        <mxCell id="Xp-bYGUBTnB8BTRdH-gd-53" value="" style="endArrow=none;html=1;rounded=0;entryX=0.5;entryY=1;entryDx=0;entryDy=0;exitX=0.5;exitY=0;exitDx=0;exitDy=0;" parent="1" source="Xp-bYGUBTnB8BTRdH-gd-13" target="Xp-bYGUBTnB8BTRdH-gd-47" edge="1">
          <mxGeometry width="50" height="50" relative="1" as="geometry">
            <mxPoint x="990" y="559" as="sourcePoint" />
            <mxPoint x="1040" y="509" as="targetPoint" />
          </mxGeometry>
        </mxCell>
        <mxCell id="Xp-bYGUBTnB8BTRdH-gd-54" value="" style="endArrow=none;html=1;rounded=0;entryX=1;entryY=0.25;entryDx=0;entryDy=0;exitX=0;exitY=0.5;exitDx=0;exitDy=0;" parent="1" source="Xp-bYGUBTnB8BTRdH-gd-48" target="Xp-bYGUBTnB8BTRdH-gd-13" edge="1">
          <mxGeometry width="50" height="50" relative="1" as="geometry">
            <mxPoint x="990" y="559" as="sourcePoint" />
            <mxPoint x="1040" y="509" as="targetPoint" />
          </mxGeometry>
        </mxCell>
        <mxCell id="Xp-bYGUBTnB8BTRdH-gd-55" value="" style="endArrow=none;html=1;rounded=0;entryX=1;entryY=0.75;entryDx=0;entryDy=0;exitX=0;exitY=0.5;exitDx=0;exitDy=0;" parent="1" source="Xp-bYGUBTnB8BTRdH-gd-49" target="Xp-bYGUBTnB8BTRdH-gd-13" edge="1">
          <mxGeometry width="50" height="50" relative="1" as="geometry">
            <mxPoint x="1005" y="539" as="sourcePoint" />
            <mxPoint x="1055" y="489" as="targetPoint" />
          </mxGeometry>
        </mxCell>
        <mxCell id="Xp-bYGUBTnB8BTRdH-gd-56" value="" style="endArrow=none;html=1;rounded=0;entryX=0.75;entryY=1;entryDx=0;entryDy=0;exitX=0;exitY=0;exitDx=0;exitDy=0;" parent="1" source="Xp-bYGUBTnB8BTRdH-gd-50" target="Xp-bYGUBTnB8BTRdH-gd-13" edge="1">
          <mxGeometry width="50" height="50" relative="1" as="geometry">
            <mxPoint x="990" y="559" as="sourcePoint" />
            <mxPoint x="1040" y="509" as="targetPoint" />
          </mxGeometry>
        </mxCell>
        <mxCell id="Xp-bYGUBTnB8BTRdH-gd-57" value="" style="endArrow=none;html=1;rounded=0;entryX=0.25;entryY=1;entryDx=0;entryDy=0;" parent="1" source="Xp-bYGUBTnB8BTRdH-gd-51" target="Xp-bYGUBTnB8BTRdH-gd-13" edge="1">
          <mxGeometry width="50" height="50" relative="1" as="geometry">
            <mxPoint x="990" y="559" as="sourcePoint" />
            <mxPoint x="1040" y="509" as="targetPoint" />
          </mxGeometry>
        </mxCell>
        <mxCell id="Xp-bYGUBTnB8BTRdH-gd-58" style="edgeStyle=orthogonalEdgeStyle;rounded=0;orthogonalLoop=1;jettySize=auto;html=1;entryX=0.5;entryY=0;entryDx=0;entryDy=0;endArrow=none;endFill=0;" parent="1" source="Xp-bYGUBTnB8BTRdH-gd-59" target="Xp-bYGUBTnB8BTRdH-gd-11" edge="1">
          <mxGeometry relative="1" as="geometry" />
        </mxCell>
        <mxCell id="Xp-bYGUBTnB8BTRdH-gd-59" value="serve" style="rhombus;whiteSpace=wrap;html=1;" parent="1" vertex="1">
          <mxGeometry x="1065" y="489" width="110" height="40" as="geometry" />
        </mxCell>
        <mxCell id="Xp-bYGUBTnB8BTRdH-gd-60" style="edgeStyle=orthogonalEdgeStyle;rounded=0;orthogonalLoop=1;jettySize=auto;html=1;exitX=1;exitY=0.5;exitDx=0;exitDy=0;entryX=0;entryY=0.5;entryDx=0;entryDy=0;endArrow=none;endFill=0;" parent="1" source="Xp-bYGUBTnB8BTRdH-gd-61" target="Xp-bYGUBTnB8BTRdH-gd-11" edge="1">
          <mxGeometry relative="1" as="geometry" />
        </mxCell>
        <mxCell id="Xp-bYGUBTnB8BTRdH-gd-61" value="has" style="rhombus;whiteSpace=wrap;html=1;" parent="1" vertex="1">
          <mxGeometry x="822" y="629" width="115" height="40" as="geometry" />
        </mxCell>
        <mxCell id="Xp-bYGUBTnB8BTRdH-gd-62" style="rounded=0;orthogonalLoop=1;jettySize=auto;html=1;exitX=1;exitY=0;exitDx=0;exitDy=0;entryX=0;entryY=0.75;entryDx=0;entryDy=0;endArrow=none;endFill=0;" parent="1" source="Xp-bYGUBTnB8BTRdH-gd-63" target="Xp-bYGUBTnB8BTRdH-gd-11" edge="1">
          <mxGeometry relative="1" as="geometry" />
        </mxCell>
        <mxCell id="Xp-bYGUBTnB8BTRdH-gd-63" value="Phones" style="ellipse;shape=doubleEllipse;whiteSpace=wrap;html=1;" parent="1" vertex="1">
          <mxGeometry x="958" y="709" width="100" height="50" as="geometry" />
        </mxCell>
        <mxCell id="Xp-bYGUBTnB8BTRdH-gd-64" value="Code" style="ellipse;whiteSpace=wrap;html=1;" parent="1" vertex="1">
          <mxGeometry x="1065" y="739" width="64" height="40" as="geometry" />
        </mxCell>
        <mxCell id="Xp-bYGUBTnB8BTRdH-gd-65" value="LName" style="ellipse;whiteSpace=wrap;html=1;" parent="1" vertex="1">
          <mxGeometry x="1219" y="602" width="64" height="40" as="geometry" />
        </mxCell>
        <mxCell id="Xp-bYGUBTnB8BTRdH-gd-66" value="Email" style="ellipse;whiteSpace=wrap;html=1;" parent="1" vertex="1">
          <mxGeometry x="1137.75" y="724" width="68.5" height="40" as="geometry" />
        </mxCell>
        <mxCell id="Xp-bYGUBTnB8BTRdH-gd-67" value="Fname" style="ellipse;whiteSpace=wrap;html=1;" parent="1" vertex="1">
          <mxGeometry x="1250" y="539" width="63" height="40" as="geometry" />
        </mxCell>
        <mxCell id="Xp-bYGUBTnB8BTRdH-gd-68" value="Office&amp;nbsp;&lt;div&gt;Addr&lt;/div&gt;" style="ellipse;whiteSpace=wrap;html=1;" parent="1" vertex="1">
          <mxGeometry x="1308" y="629" width="65" height="40" as="geometry" />
        </mxCell>
        <mxCell id="Xp-bYGUBTnB8BTRdH-gd-69" value="Home Addr" style="ellipse;whiteSpace=wrap;html=1;" parent="1" vertex="1">
          <mxGeometry x="1223" y="684" width="66.75" height="40" as="geometry" />
        </mxCell>
        <mxCell id="Xp-bYGUBTnB8BTRdH-gd-70" style="rounded=0;orthogonalLoop=1;jettySize=auto;html=1;endArrow=none;endFill=0;" parent="1" source="Xp-bYGUBTnB8BTRdH-gd-71" target="Xp-bYGUBTnB8BTRdH-gd-73" edge="1">
          <mxGeometry relative="1" as="geometry" />
        </mxCell>
        <mxCell id="Xp-bYGUBTnB8BTRdH-gd-71" value="d" style="ellipse;whiteSpace=wrap;html=1;aspect=fixed;" parent="1" vertex="1">
          <mxGeometry x="632" y="724" width="40" height="40" as="geometry" />
        </mxCell>
        <mxCell id="Xp-bYGUBTnB8BTRdH-gd-72" value="" style="edgeStyle=orthogonalEdgeStyle;rounded=0;orthogonalLoop=1;jettySize=auto;html=1;endArrow=none;endFill=0;" parent="1" source="Xp-bYGUBTnB8BTRdH-gd-73" target="Xp-bYGUBTnB8BTRdH-gd-82" edge="1">
          <mxGeometry relative="1" as="geometry" />
        </mxCell>
        <mxCell id="Xp-bYGUBTnB8BTRdH-gd-73" value="Saving&amp;nbsp;&lt;div&gt;account&lt;/div&gt;" style="rounded=0;whiteSpace=wrap;html=1;" parent="1" vertex="1">
          <mxGeometry x="446" y="859" width="106" height="40" as="geometry" />
        </mxCell>
        <mxCell id="Xp-bYGUBTnB8BTRdH-gd-74" value="Checking&amp;nbsp;&lt;div&gt;account&lt;/div&gt;" style="rounded=0;whiteSpace=wrap;html=1;" parent="1" vertex="1">
          <mxGeometry x="629" y="859" width="106" height="40" as="geometry" />
        </mxCell>
        <mxCell id="Xp-bYGUBTnB8BTRdH-gd-75" value="Loan" style="rounded=0;whiteSpace=wrap;html=1;" parent="1" vertex="1">
          <mxGeometry x="812.5" y="859" width="106" height="40" as="geometry" />
        </mxCell>
        <mxCell id="Xp-bYGUBTnB8BTRdH-gd-76" style="edgeStyle=orthogonalEdgeStyle;rounded=0;orthogonalLoop=1;jettySize=auto;html=1;entryX=0;entryY=0.5;entryDx=0;entryDy=0;endArrow=none;endFill=0;" parent="1" source="Xp-bYGUBTnB8BTRdH-gd-77" target="Xp-bYGUBTnB8BTRdH-gd-4" edge="1">
          <mxGeometry relative="1" as="geometry" />
        </mxCell>
        <mxCell id="Xp-bYGUBTnB8BTRdH-gd-77" value="&lt;u&gt;Number&lt;/u&gt;" style="ellipse;whiteSpace=wrap;html=1;" parent="1" vertex="1">
          <mxGeometry x="474" y="629" width="52.5" height="40" as="geometry" />
        </mxCell>
        <mxCell id="Xp-bYGUBTnB8BTRdH-gd-78" style="rounded=0;orthogonalLoop=1;jettySize=auto;html=1;entryX=0.25;entryY=1;entryDx=0;entryDy=0;endArrow=none;endFill=0;" parent="1" source="Xp-bYGUBTnB8BTRdH-gd-79" target="Xp-bYGUBTnB8BTRdH-gd-73" edge="1">
          <mxGeometry relative="1" as="geometry" />
        </mxCell>
        <mxCell id="Xp-bYGUBTnB8BTRdH-gd-79" value="Interes&amp;nbsp;&lt;div&gt;Rate&lt;/div&gt;" style="ellipse;whiteSpace=wrap;html=1;" parent="1" vertex="1">
          <mxGeometry x="329" y="919" width="109" height="40" as="geometry" />
        </mxCell>
        <mxCell id="Xp-bYGUBTnB8BTRdH-gd-80" style="rounded=0;orthogonalLoop=1;jettySize=auto;html=1;entryX=0.75;entryY=1;entryDx=0;entryDy=0;endArrow=none;endFill=0;" parent="1" source="Xp-bYGUBTnB8BTRdH-gd-81" target="Xp-bYGUBTnB8BTRdH-gd-74" edge="1">
          <mxGeometry relative="1" as="geometry" />
        </mxCell>
        <mxCell id="Xp-bYGUBTnB8BTRdH-gd-81" value="Opened&amp;nbsp;&lt;div&gt;Date&lt;/div&gt;" style="ellipse;whiteSpace=wrap;html=1;" parent="1" vertex="1">
          <mxGeometry x="693.28" y="959" width="63.25" height="40" as="geometry" />
        </mxCell>
        <mxCell id="Xp-bYGUBTnB8BTRdH-gd-82" value="Balance" style="ellipse;whiteSpace=wrap;html=1;" parent="1" vertex="1">
          <mxGeometry x="290" y="859" width="109" height="40" as="geometry" />
        </mxCell>
        <mxCell id="Xp-bYGUBTnB8BTRdH-gd-83" style="rounded=0;orthogonalLoop=1;jettySize=auto;html=1;entryX=0.5;entryY=1;entryDx=0;entryDy=0;endArrow=none;endFill=0;" parent="1" source="Xp-bYGUBTnB8BTRdH-gd-84" target="Xp-bYGUBTnB8BTRdH-gd-75" edge="1">
          <mxGeometry relative="1" as="geometry" />
        </mxCell>
        <mxCell id="Xp-bYGUBTnB8BTRdH-gd-84" value="Taken Date" style="ellipse;whiteSpace=wrap;html=1;" parent="1" vertex="1">
          <mxGeometry x="790" y="939" width="109" height="40" as="geometry" />
        </mxCell>
        <mxCell id="Xp-bYGUBTnB8BTRdH-gd-85" value="Address" style="ellipse;whiteSpace=wrap;html=1;" parent="1" vertex="1">
          <mxGeometry x="1124" y="277" width="109" height="40" as="geometry" />
        </mxCell>
        <mxCell id="Xp-bYGUBTnB8BTRdH-gd-86" value="" style="endArrow=none;html=1;rounded=0;exitX=0.5;exitY=1;exitDx=0;exitDy=0;entryX=0.75;entryY=0;entryDx=0;entryDy=0;" parent="1" source="Xp-bYGUBTnB8BTRdH-gd-85" target="Xp-bYGUBTnB8BTRdH-gd-13" edge="1">
          <mxGeometry width="50" height="50" relative="1" as="geometry">
            <mxPoint x="1446.5" y="209" as="sourcePoint" />
            <mxPoint x="1312.5" y="339" as="targetPoint" />
          </mxGeometry>
        </mxCell>
        <mxCell id="Xp-bYGUBTnB8BTRdH-gd-87" value="Street" style="ellipse;whiteSpace=wrap;html=1;" parent="1" vertex="1">
          <mxGeometry x="1098" y="169" width="90" height="38" as="geometry" />
        </mxCell>
        <mxCell id="Xp-bYGUBTnB8BTRdH-gd-88" value="District" style="ellipse;whiteSpace=wrap;html=1;" parent="1" vertex="1">
          <mxGeometry x="1180" y="197" width="90" height="38" as="geometry" />
        </mxCell>
        <mxCell id="Xp-bYGUBTnB8BTRdH-gd-89" value="No." style="ellipse;whiteSpace=wrap;html=1;" parent="1" vertex="1">
          <mxGeometry x="1039" y="209" width="90" height="38" as="geometry" />
        </mxCell>
        <mxCell id="Xp-bYGUBTnB8BTRdH-gd-90" value="City" style="ellipse;whiteSpace=wrap;html=1;" parent="1" vertex="1">
          <mxGeometry x="1283" y="225" width="90" height="44" as="geometry" />
        </mxCell>
        <mxCell id="Xp-bYGUBTnB8BTRdH-gd-91" value="" style="endArrow=none;html=1;rounded=0;exitX=0.5;exitY=1;exitDx=0;exitDy=0;entryX=0;entryY=0.5;entryDx=0;entryDy=0;" parent="1" source="Xp-bYGUBTnB8BTRdH-gd-89" target="Xp-bYGUBTnB8BTRdH-gd-85" edge="1">
          <mxGeometry width="50" height="50" relative="1" as="geometry">
            <mxPoint x="1134.5" y="287" as="sourcePoint" />
            <mxPoint x="1184.5" y="237" as="targetPoint" />
          </mxGeometry>
        </mxCell>
        <mxCell id="Xp-bYGUBTnB8BTRdH-gd-92" value="" style="endArrow=none;html=1;rounded=0;entryX=0;entryY=0.5;entryDx=0;entryDy=0;exitX=0.678;exitY=0.059;exitDx=0;exitDy=0;exitPerimeter=0;" parent="1" source="Xp-bYGUBTnB8BTRdH-gd-85" target="Xp-bYGUBTnB8BTRdH-gd-90" edge="1">
          <mxGeometry width="50" height="50" relative="1" as="geometry">
            <mxPoint x="1444.5" y="427" as="sourcePoint" />
            <mxPoint x="1494.5" y="377" as="targetPoint" />
          </mxGeometry>
        </mxCell>
        <mxCell id="Xp-bYGUBTnB8BTRdH-gd-93" value="" style="endArrow=none;html=1;rounded=0;exitX=0.5;exitY=1;exitDx=0;exitDy=0;entryX=0.5;entryY=0;entryDx=0;entryDy=0;" parent="1" source="Xp-bYGUBTnB8BTRdH-gd-88" target="Xp-bYGUBTnB8BTRdH-gd-85" edge="1">
          <mxGeometry width="50" height="50" relative="1" as="geometry">
            <mxPoint x="1444.5" y="427" as="sourcePoint" />
            <mxPoint x="1494.5" y="377" as="targetPoint" />
          </mxGeometry>
        </mxCell>
        <mxCell id="Xp-bYGUBTnB8BTRdH-gd-94" value="" style="endArrow=none;html=1;rounded=0;exitX=0.5;exitY=1;exitDx=0;exitDy=0;entryX=0.5;entryY=0;entryDx=0;entryDy=0;" parent="1" source="Xp-bYGUBTnB8BTRdH-gd-87" target="Xp-bYGUBTnB8BTRdH-gd-85" edge="1">
          <mxGeometry width="50" height="50" relative="1" as="geometry">
            <mxPoint x="1444.5" y="427" as="sourcePoint" />
            <mxPoint x="1494.5" y="377" as="targetPoint" />
          </mxGeometry>
        </mxCell>
        <mxCell id="Xp-bYGUBTnB8BTRdH-gd-95" style="rounded=0;orthogonalLoop=1;jettySize=auto;html=1;entryX=0.25;entryY=1;entryDx=0;entryDy=0;endArrow=none;endFill=0;" parent="1" source="Xp-bYGUBTnB8BTRdH-gd-96" target="Xp-bYGUBTnB8BTRdH-gd-74" edge="1">
          <mxGeometry relative="1" as="geometry" />
        </mxCell>
        <mxCell id="Xp-bYGUBTnB8BTRdH-gd-96" value="Balance" style="ellipse;whiteSpace=wrap;html=1;" parent="1" vertex="1">
          <mxGeometry x="604.99" y="959" width="59" height="40" as="geometry" />
        </mxCell>
        <mxCell id="Xp-bYGUBTnB8BTRdH-gd-97" style="rounded=0;orthogonalLoop=1;jettySize=auto;html=1;entryX=0.75;entryY=0;entryDx=0;entryDy=0;endArrow=none;endFill=0;" parent="1" source="Xp-bYGUBTnB8BTRdH-gd-98" target="Xp-bYGUBTnB8BTRdH-gd-75" edge="1">
          <mxGeometry relative="1" as="geometry" />
        </mxCell>
        <mxCell id="Xp-bYGUBTnB8BTRdH-gd-98" value="Interes&amp;nbsp;&lt;div&gt;Rate&lt;/div&gt;" style="ellipse;whiteSpace=wrap;html=1;" parent="1" vertex="1">
          <mxGeometry x="859" y="789" width="109" height="40" as="geometry" />
        </mxCell>
        <mxCell id="Xp-bYGUBTnB8BTRdH-gd-99" style="edgeStyle=orthogonalEdgeStyle;rounded=0;orthogonalLoop=1;jettySize=auto;html=1;entryX=0.5;entryY=1;entryDx=0;entryDy=0;endArrow=none;endFill=0;" parent="1" source="Xp-bYGUBTnB8BTRdH-gd-100" target="Xp-bYGUBTnB8BTRdH-gd-73" edge="1">
          <mxGeometry relative="1" as="geometry" />
        </mxCell>
        <mxCell id="Xp-bYGUBTnB8BTRdH-gd-100" value="Opened&amp;nbsp;&lt;div&gt;Date&lt;/div&gt;" style="ellipse;whiteSpace=wrap;html=1;" parent="1" vertex="1">
          <mxGeometry x="444.5" y="939" width="109" height="40" as="geometry" />
        </mxCell>
        <mxCell id="Xp-bYGUBTnB8BTRdH-gd-101" style="rounded=0;orthogonalLoop=1;jettySize=auto;html=1;entryX=1;entryY=0.5;entryDx=0;entryDy=0;endArrow=none;endFill=0;" parent="1" source="Xp-bYGUBTnB8BTRdH-gd-102" target="Xp-bYGUBTnB8BTRdH-gd-75" edge="1">
          <mxGeometry relative="1" as="geometry" />
        </mxCell>
        <mxCell id="Xp-bYGUBTnB8BTRdH-gd-102" value="Balance&lt;div&gt;Due&lt;/div&gt;" style="ellipse;whiteSpace=wrap;html=1;" parent="1" vertex="1">
          <mxGeometry x="939" y="879" width="109" height="40" as="geometry" />
        </mxCell>
        <mxCell id="Xp-bYGUBTnB8BTRdH-gd-103" value="" style="ellipse;whiteSpace=wrap;html=1;align=center;aspect=fixed;fillColor=none;strokeColor=none;resizable=0;perimeter=centerPerimeter;rotatable=0;allowArrows=0;points=[];outlineConnect=1;" parent="1" vertex="1">
          <mxGeometry x="679" y="749" width="10" height="10" as="geometry" />
        </mxCell>
        <mxCell id="Xp-bYGUBTnB8BTRdH-gd-104" style="rounded=0;orthogonalLoop=1;jettySize=auto;html=1;endArrow=none;endFill=0;exitX=0.5;exitY=1;exitDx=0;exitDy=0;entryX=0.5;entryY=0;entryDx=0;entryDy=0;" parent="1" source="Xp-bYGUBTnB8BTRdH-gd-71" target="Xp-bYGUBTnB8BTRdH-gd-74" edge="1">
          <mxGeometry relative="1" as="geometry">
            <mxPoint x="689" y="789" as="sourcePoint" />
            <mxPoint x="719" y="911" as="targetPoint" />
          </mxGeometry>
        </mxCell>
        <mxCell id="Xp-bYGUBTnB8BTRdH-gd-105" value="" style="shape=requiredInterface;html=1;verticalLabelPosition=bottom;sketch=0;rotation=-110;" parent="1" vertex="1">
          <mxGeometry x="663.99" y="809" width="15.01" height="28.59" as="geometry" />
        </mxCell>
        <mxCell id="Xp-bYGUBTnB8BTRdH-gd-106" value="" style="shape=requiredInterface;html=1;verticalLabelPosition=bottom;sketch=0;rotation=-45;" parent="1" vertex="1">
          <mxGeometry x="569.0047671897937" y="794.7065710678385" width="15.01" height="28.59" as="geometry" />
        </mxCell>
        <mxCell id="Xp-bYGUBTnB8BTRdH-gd-107" style="rounded=0;orthogonalLoop=1;jettySize=auto;html=1;endArrow=none;endFill=0;exitX=1;exitY=1;exitDx=0;exitDy=0;entryX=0.5;entryY=0;entryDx=0;entryDy=0;" parent="1" source="Xp-bYGUBTnB8BTRdH-gd-71" target="Xp-bYGUBTnB8BTRdH-gd-75" edge="1">
          <mxGeometry relative="1" as="geometry">
            <mxPoint x="759" y="799" as="sourcePoint" />
            <mxPoint x="789" y="894" as="targetPoint" />
          </mxGeometry>
        </mxCell>
        <mxCell id="Xp-bYGUBTnB8BTRdH-gd-108" value="" style="shape=requiredInterface;html=1;verticalLabelPosition=bottom;sketch=0;rotation=-150;" parent="1" vertex="1">
          <mxGeometry x="769" y="800.4099999999999" width="15.01" height="28.59" as="geometry" />
        </mxCell>
        <mxCell id="Xp-bYGUBTnB8BTRdH-gd-109" value="n" style="text;html=1;align=center;verticalAlign=middle;resizable=0;points=[];autosize=1;strokeColor=none;fillColor=none;" parent="1" vertex="1">
          <mxGeometry x="788" y="607" width="30" height="30" as="geometry" />
        </mxCell>
        <mxCell id="Xp-bYGUBTnB8BTRdH-gd-110" value="1" style="text;html=1;align=center;verticalAlign=middle;resizable=0;points=[];autosize=1;strokeColor=none;fillColor=none;" parent="1" vertex="1">
          <mxGeometry x="928" y="607" width="30" height="30" as="geometry" />
        </mxCell>
        <mxCell id="Xp-bYGUBTnB8BTRdH-gd-111" value="n" style="text;html=1;align=center;verticalAlign=middle;resizable=0;points=[];autosize=1;strokeColor=none;fillColor=none;" parent="1" vertex="1">
          <mxGeometry x="1128" y="527" width="30" height="30" as="geometry" />
        </mxCell>
        <mxCell id="Xp-bYGUBTnB8BTRdH-gd-112" value="1" style="text;html=1;align=center;verticalAlign=middle;resizable=0;points=[];autosize=1;strokeColor=none;fillColor=none;" parent="1" vertex="1">
          <mxGeometry x="1123" y="459" width="30" height="30" as="geometry" />
        </mxCell>
      </root>
    </mxGraphModel>
  </diagram>
</mxfile>
